<mxfile host="app.diagrams.net" modified="2022-08-05T09:56:04.963Z" agent="5.0 (X11)" etag="XVm-Uk7deTbtOfb67UMr" version="20.2.2" type="github" pages="3">
  <diagram id="xgExO2VgEaIyeyu2MwbZ" name="ステージLC">
    <mxGraphModel dx="1406" dy="757" grid="1" gridSize="10" guides="1" tooltips="1" connect="1" arrows="1" fold="1" page="1" pageScale="1" pageWidth="827" pageHeight="1169" math="0" shadow="0">
      <root>
        <mxCell id="0" />
        <mxCell id="1" parent="0" />
        <mxCell id="ELOPcXGTnWT-Js7EqJzr-1" value="街" style="rounded=0;whiteSpace=wrap;html=1;" parent="1" vertex="1">
          <mxGeometry x="70" y="260" width="120" height="60" as="geometry" />
        </mxCell>
        <mxCell id="ELOPcXGTnWT-Js7EqJzr-3" value="各ダンジョン" style="whiteSpace=wrap;html=1;" parent="1" vertex="1">
          <mxGeometry x="294" y="260" width="120" height="60" as="geometry" />
        </mxCell>
      </root>
    </mxGraphModel>
  </diagram>
  <diagram id="gChnT5xIucmLykDZQfVU" name="戦闘LC">
    <mxGraphModel dx="1406" dy="757" grid="1" gridSize="10" guides="1" tooltips="1" connect="1" arrows="1" fold="1" page="1" pageScale="1" pageWidth="827" pageHeight="1169" math="0" shadow="0">
      <root>
        <mxCell id="0" />
        <mxCell id="1" parent="0" />
        <mxCell id="jUmFY09pZoFJpSRK4bMP-16" style="edgeStyle=orthogonalEdgeStyle;rounded=0;orthogonalLoop=1;jettySize=auto;html=1;" edge="1" parent="1" source="jUmFY09pZoFJpSRK4bMP-1" target="jUmFY09pZoFJpSRK4bMP-2">
          <mxGeometry relative="1" as="geometry" />
        </mxCell>
        <mxCell id="jUmFY09pZoFJpSRK4bMP-1" value="シンボル接触" style="whiteSpace=wrap;html=1;" vertex="1" parent="1">
          <mxGeometry x="20" y="310" width="120" height="60" as="geometry" />
        </mxCell>
        <mxCell id="jUmFY09pZoFJpSRK4bMP-17" style="edgeStyle=orthogonalEdgeStyle;rounded=0;orthogonalLoop=1;jettySize=auto;html=1;" edge="1" parent="1" source="jUmFY09pZoFJpSRK4bMP-2" target="jUmFY09pZoFJpSRK4bMP-3">
          <mxGeometry relative="1" as="geometry" />
        </mxCell>
        <mxCell id="jUmFY09pZoFJpSRK4bMP-2" value="モンスター生成" style="whiteSpace=wrap;html=1;" vertex="1" parent="1">
          <mxGeometry x="180" y="310" width="120" height="60" as="geometry" />
        </mxCell>
        <mxCell id="jUmFY09pZoFJpSRK4bMP-18" style="edgeStyle=orthogonalEdgeStyle;rounded=0;orthogonalLoop=1;jettySize=auto;html=1;" edge="1" parent="1" source="jUmFY09pZoFJpSRK4bMP-3" target="jUmFY09pZoFJpSRK4bMP-4">
          <mxGeometry relative="1" as="geometry" />
        </mxCell>
        <mxCell id="jUmFY09pZoFJpSRK4bMP-3" value="出現" style="whiteSpace=wrap;html=1;" vertex="1" parent="1">
          <mxGeometry x="330" y="310" width="120" height="60" as="geometry" />
        </mxCell>
        <mxCell id="jUmFY09pZoFJpSRK4bMP-19" style="edgeStyle=orthogonalEdgeStyle;rounded=0;orthogonalLoop=1;jettySize=auto;html=1;" edge="1" parent="1" source="jUmFY09pZoFJpSRK4bMP-4" target="jUmFY09pZoFJpSRK4bMP-5">
          <mxGeometry relative="1" as="geometry" />
        </mxCell>
        <mxCell id="jUmFY09pZoFJpSRK4bMP-4" value="コマンド(人数分)" style="whiteSpace=wrap;html=1;" vertex="1" parent="1">
          <mxGeometry x="490" y="310" width="120" height="60" as="geometry" />
        </mxCell>
        <mxCell id="jUmFY09pZoFJpSRK4bMP-20" style="edgeStyle=orthogonalEdgeStyle;rounded=0;orthogonalLoop=1;jettySize=auto;html=1;" edge="1" parent="1" source="jUmFY09pZoFJpSRK4bMP-5" target="jUmFY09pZoFJpSRK4bMP-10">
          <mxGeometry relative="1" as="geometry" />
        </mxCell>
        <mxCell id="jUmFY09pZoFJpSRK4bMP-5" value="ターン開始" style="whiteSpace=wrap;html=1;" vertex="1" parent="1">
          <mxGeometry x="640" y="310" width="120" height="60" as="geometry" />
        </mxCell>
        <mxCell id="jUmFY09pZoFJpSRK4bMP-21" style="edgeStyle=orthogonalEdgeStyle;rounded=0;orthogonalLoop=1;jettySize=auto;html=1;" edge="1" parent="1" source="jUmFY09pZoFJpSRK4bMP-10" target="jUmFY09pZoFJpSRK4bMP-15">
          <mxGeometry relative="1" as="geometry" />
        </mxCell>
        <mxCell id="jUmFY09pZoFJpSRK4bMP-22" style="edgeStyle=orthogonalEdgeStyle;rounded=0;orthogonalLoop=1;jettySize=auto;html=1;entryX=0.5;entryY=1;entryDx=0;entryDy=0;exitX=0.55;exitY=0.998;exitDx=0;exitDy=0;exitPerimeter=0;" edge="1" parent="1" source="jUmFY09pZoFJpSRK4bMP-10" target="jUmFY09pZoFJpSRK4bMP-4">
          <mxGeometry relative="1" as="geometry">
            <mxPoint x="570" y="530" as="targetPoint" />
            <Array as="points">
              <mxPoint x="910" y="820" />
              <mxPoint x="550" y="820" />
            </Array>
          </mxGeometry>
        </mxCell>
        <mxCell id="0IkihTS5zGJ0JQKMcza6-11" value="戦闘継続" style="edgeLabel;html=1;align=center;verticalAlign=middle;resizable=0;points=[];" vertex="1" connectable="0" parent="jUmFY09pZoFJpSRK4bMP-22">
          <mxGeometry x="-0.3402" y="-1" relative="1" as="geometry">
            <mxPoint as="offset" />
          </mxGeometry>
        </mxCell>
        <mxCell id="jUmFY09pZoFJpSRK4bMP-24" style="edgeStyle=orthogonalEdgeStyle;rounded=0;orthogonalLoop=1;jettySize=auto;html=1;" edge="1" parent="1" source="jUmFY09pZoFJpSRK4bMP-10" target="jUmFY09pZoFJpSRK4bMP-23">
          <mxGeometry relative="1" as="geometry" />
        </mxCell>
        <mxCell id="jUmFY09pZoFJpSRK4bMP-10" value="" style="swimlane;startSize=0;" vertex="1" parent="1">
          <mxGeometry x="800" y="180" width="200" height="620" as="geometry" />
        </mxCell>
        <mxCell id="0IkihTS5zGJ0JQKMcza6-10" style="edgeStyle=orthogonalEdgeStyle;rounded=0;orthogonalLoop=1;jettySize=auto;html=1;" edge="1" parent="jUmFY09pZoFJpSRK4bMP-10" source="jUmFY09pZoFJpSRK4bMP-8" target="0IkihTS5zGJ0JQKMcza6-5">
          <mxGeometry relative="1" as="geometry" />
        </mxCell>
        <mxCell id="jUmFY09pZoFJpSRK4bMP-8" value="攻撃" style="whiteSpace=wrap;html=1;" vertex="1" parent="jUmFY09pZoFJpSRK4bMP-10">
          <mxGeometry x="20" y="420" width="120" height="60" as="geometry" />
        </mxCell>
        <mxCell id="0IkihTS5zGJ0JQKMcza6-8" style="edgeStyle=orthogonalEdgeStyle;rounded=0;orthogonalLoop=1;jettySize=auto;html=1;" edge="1" parent="jUmFY09pZoFJpSRK4bMP-10" source="jUmFY09pZoFJpSRK4bMP-7" target="0IkihTS5zGJ0JQKMcza6-3">
          <mxGeometry relative="1" as="geometry" />
        </mxCell>
        <mxCell id="jUmFY09pZoFJpSRK4bMP-7" value="攻撃" style="whiteSpace=wrap;html=1;" vertex="1" parent="jUmFY09pZoFJpSRK4bMP-10">
          <mxGeometry x="20" y="230" width="120" height="60" as="geometry" />
        </mxCell>
        <mxCell id="jUmFY09pZoFJpSRK4bMP-14" value="素早さベースで順序を決定する" style="text;html=1;align=center;verticalAlign=middle;resizable=0;points=[];autosize=1;strokeColor=none;fillColor=none;" vertex="1" parent="jUmFY09pZoFJpSRK4bMP-10">
          <mxGeometry x="20" width="180" height="30" as="geometry" />
        </mxCell>
        <mxCell id="0IkihTS5zGJ0JQKMcza6-6" style="edgeStyle=orthogonalEdgeStyle;rounded=0;orthogonalLoop=1;jettySize=auto;html=1;" edge="1" parent="jUmFY09pZoFJpSRK4bMP-10" source="jUmFY09pZoFJpSRK4bMP-9" target="0IkihTS5zGJ0JQKMcza6-2">
          <mxGeometry relative="1" as="geometry" />
        </mxCell>
        <mxCell id="jUmFY09pZoFJpSRK4bMP-9" value="攻撃" style="whiteSpace=wrap;html=1;" vertex="1" parent="jUmFY09pZoFJpSRK4bMP-10">
          <mxGeometry x="20" y="30" width="120" height="60" as="geometry" />
        </mxCell>
        <mxCell id="0IkihTS5zGJ0JQKMcza6-7" style="edgeStyle=orthogonalEdgeStyle;rounded=0;orthogonalLoop=1;jettySize=auto;html=1;" edge="1" parent="jUmFY09pZoFJpSRK4bMP-10" source="0IkihTS5zGJ0JQKMcza6-2" target="jUmFY09pZoFJpSRK4bMP-7">
          <mxGeometry relative="1" as="geometry" />
        </mxCell>
        <mxCell id="0IkihTS5zGJ0JQKMcza6-2" value="効果" style="rounded=0;whiteSpace=wrap;html=1;" vertex="1" parent="jUmFY09pZoFJpSRK4bMP-10">
          <mxGeometry x="20" y="120" width="120" height="60" as="geometry" />
        </mxCell>
        <mxCell id="0IkihTS5zGJ0JQKMcza6-5" value="効果" style="whiteSpace=wrap;html=1;" vertex="1" parent="jUmFY09pZoFJpSRK4bMP-10">
          <mxGeometry x="20" y="520" width="120" height="60" as="geometry" />
        </mxCell>
        <mxCell id="0IkihTS5zGJ0JQKMcza6-9" style="edgeStyle=orthogonalEdgeStyle;rounded=0;orthogonalLoop=1;jettySize=auto;html=1;" edge="1" parent="jUmFY09pZoFJpSRK4bMP-10" source="0IkihTS5zGJ0JQKMcza6-3" target="jUmFY09pZoFJpSRK4bMP-8">
          <mxGeometry relative="1" as="geometry" />
        </mxCell>
        <mxCell id="0IkihTS5zGJ0JQKMcza6-3" value="効果" style="whiteSpace=wrap;html=1;" vertex="1" parent="jUmFY09pZoFJpSRK4bMP-10">
          <mxGeometry x="20" y="330" width="120" height="60" as="geometry" />
        </mxCell>
        <mxCell id="jUmFY09pZoFJpSRK4bMP-13" value="戦闘" style="text;html=1;align=center;verticalAlign=middle;resizable=0;points=[];autosize=1;strokeColor=none;fillColor=none;" vertex="1" parent="1">
          <mxGeometry x="790" y="150" width="50" height="30" as="geometry" />
        </mxCell>
        <mxCell id="jUmFY09pZoFJpSRK4bMP-28" style="edgeStyle=orthogonalEdgeStyle;rounded=0;orthogonalLoop=1;jettySize=auto;html=1;entryX=0;entryY=0.5;entryDx=0;entryDy=0;" edge="1" parent="1" source="jUmFY09pZoFJpSRK4bMP-15" target="jUmFY09pZoFJpSRK4bMP-25">
          <mxGeometry relative="1" as="geometry" />
        </mxCell>
        <mxCell id="jUmFY09pZoFJpSRK4bMP-15" value="勝利" style="whiteSpace=wrap;html=1;" vertex="1" parent="1">
          <mxGeometry x="1090" y="260" width="120" height="60" as="geometry" />
        </mxCell>
        <mxCell id="jUmFY09pZoFJpSRK4bMP-23" value="ゲームオーバー" style="whiteSpace=wrap;html=1;" vertex="1" parent="1">
          <mxGeometry x="1090" y="360" width="120" height="60" as="geometry" />
        </mxCell>
        <mxCell id="jUmFY09pZoFJpSRK4bMP-29" style="edgeStyle=orthogonalEdgeStyle;rounded=0;orthogonalLoop=1;jettySize=auto;html=1;" edge="1" parent="1" source="jUmFY09pZoFJpSRK4bMP-25" target="jUmFY09pZoFJpSRK4bMP-27">
          <mxGeometry relative="1" as="geometry" />
        </mxCell>
        <mxCell id="jUmFY09pZoFJpSRK4bMP-25" value="リザルト" style="whiteSpace=wrap;html=1;" vertex="1" parent="1">
          <mxGeometry x="1270" y="260" width="120" height="60" as="geometry" />
        </mxCell>
        <mxCell id="jUmFY09pZoFJpSRK4bMP-27" value="フィールドへ" style="whiteSpace=wrap;html=1;" vertex="1" parent="1">
          <mxGeometry x="1440" y="260" width="120" height="60" as="geometry" />
        </mxCell>
      </root>
    </mxGraphModel>
  </diagram>
  <diagram id="OUv0jVe5gZ62N6YKWdYC" name="effect system">
    <mxGraphModel dx="970" dy="522" grid="1" gridSize="10" guides="1" tooltips="1" connect="1" arrows="1" fold="1" page="1" pageScale="1" pageWidth="827" pageHeight="1169" math="0" shadow="0">
      <root>
        <mxCell id="0" />
        <mxCell id="1" parent="0" />
        <mxCell id="MtfLHptTJ_sEdnldehco-5" style="edgeStyle=orthogonalEdgeStyle;rounded=0;orthogonalLoop=1;jettySize=auto;html=1;" edge="1" parent="1" source="MtfLHptTJ_sEdnldehco-1" target="MtfLHptTJ_sEdnldehco-2">
          <mxGeometry relative="1" as="geometry" />
        </mxCell>
        <mxCell id="MtfLHptTJ_sEdnldehco-7" value="use" style="edgeLabel;html=1;align=center;verticalAlign=middle;resizable=0;points=[];" vertex="1" connectable="0" parent="MtfLHptTJ_sEdnldehco-5">
          <mxGeometry x="0.1792" y="1" relative="1" as="geometry">
            <mxPoint as="offset" />
          </mxGeometry>
        </mxCell>
        <mxCell id="MtfLHptTJ_sEdnldehco-14" style="edgeStyle=orthogonalEdgeStyle;rounded=0;orthogonalLoop=1;jettySize=auto;html=1;entryX=0;entryY=0.5;entryDx=0;entryDy=0;" edge="1" parent="1" source="MtfLHptTJ_sEdnldehco-1" target="MtfLHptTJ_sEdnldehco-13">
          <mxGeometry relative="1" as="geometry">
            <Array as="points">
              <mxPoint x="220" y="360" />
              <mxPoint x="220" y="470" />
            </Array>
          </mxGeometry>
        </mxCell>
        <mxCell id="MtfLHptTJ_sEdnldehco-15" value="効果のあるタイルに移動" style="edgeLabel;html=1;align=center;verticalAlign=middle;resizable=0;points=[];" vertex="1" connectable="0" parent="MtfLHptTJ_sEdnldehco-14">
          <mxGeometry x="0.0671" y="-1" relative="1" as="geometry">
            <mxPoint as="offset" />
          </mxGeometry>
        </mxCell>
        <mxCell id="MtfLHptTJ_sEdnldehco-19" style="edgeStyle=orthogonalEdgeStyle;rounded=0;orthogonalLoop=1;jettySize=auto;html=1;entryX=0;entryY=0.5;entryDx=0;entryDy=0;" edge="1" parent="1" source="MtfLHptTJ_sEdnldehco-1" target="MtfLHptTJ_sEdnldehco-18">
          <mxGeometry relative="1" as="geometry">
            <Array as="points">
              <mxPoint x="220" y="360" />
              <mxPoint x="220" y="250" />
            </Array>
          </mxGeometry>
        </mxCell>
        <mxCell id="MtfLHptTJ_sEdnldehco-20" value="ダメージを受ける" style="edgeLabel;html=1;align=center;verticalAlign=middle;resizable=0;points=[];" vertex="1" connectable="0" parent="MtfLHptTJ_sEdnldehco-19">
          <mxGeometry x="0.4004" y="1" relative="1" as="geometry">
            <mxPoint as="offset" />
          </mxGeometry>
        </mxCell>
        <mxCell id="MtfLHptTJ_sEdnldehco-1" value="Actor" style="shape=umlActor;verticalLabelPosition=bottom;verticalAlign=top;html=1;outlineConnect=0;" vertex="1" parent="1">
          <mxGeometry x="160" y="330" width="30" height="60" as="geometry" />
        </mxCell>
        <mxCell id="MtfLHptTJ_sEdnldehco-4" style="edgeStyle=orthogonalEdgeStyle;rounded=0;orthogonalLoop=1;jettySize=auto;html=1;" edge="1" parent="1" source="MtfLHptTJ_sEdnldehco-2" target="MtfLHptTJ_sEdnldehco-3">
          <mxGeometry relative="1" as="geometry" />
        </mxCell>
        <mxCell id="MtfLHptTJ_sEdnldehco-6" value="ItemUseを&lt;br&gt;enqueue" style="edgeLabel;html=1;align=center;verticalAlign=middle;resizable=0;points=[];" vertex="1" connectable="0" parent="MtfLHptTJ_sEdnldehco-4">
          <mxGeometry x="-0.28" y="3" relative="1" as="geometry">
            <mxPoint x="14" y="3" as="offset" />
          </mxGeometry>
        </mxCell>
        <mxCell id="MtfLHptTJ_sEdnldehco-2" value="item" style="rounded=0;whiteSpace=wrap;html=1;" vertex="1" parent="1">
          <mxGeometry x="270" y="330" width="120" height="60" as="geometry" />
        </mxCell>
        <mxCell id="MtfLHptTJ_sEdnldehco-9" style="edgeStyle=orthogonalEdgeStyle;rounded=0;orthogonalLoop=1;jettySize=auto;html=1;" edge="1" parent="1" source="MtfLHptTJ_sEdnldehco-3" target="MtfLHptTJ_sEdnldehco-8">
          <mxGeometry relative="1" as="geometry" />
        </mxCell>
        <mxCell id="MtfLHptTJ_sEdnldehco-10" value="解釈" style="edgeLabel;html=1;align=center;verticalAlign=middle;resizable=0;points=[];" vertex="1" connectable="0" parent="MtfLHptTJ_sEdnldehco-9">
          <mxGeometry x="-0.2644" y="1" relative="1" as="geometry">
            <mxPoint as="offset" />
          </mxGeometry>
        </mxCell>
        <mxCell id="MtfLHptTJ_sEdnldehco-3" value="Effect Queue&lt;br&gt;&lt;br&gt;ダメージを与える&lt;br&gt;タイルに装飾する&lt;br&gt;ポータルを発生させる" style="whiteSpace=wrap;html=1;" vertex="1" parent="1">
          <mxGeometry x="490" y="330" width="120" height="80" as="geometry" />
        </mxCell>
        <mxCell id="MtfLHptTJ_sEdnldehco-11" style="edgeStyle=orthogonalEdgeStyle;rounded=0;orthogonalLoop=1;jettySize=auto;html=1;" edge="1" parent="1" source="MtfLHptTJ_sEdnldehco-8" target="MtfLHptTJ_sEdnldehco-3">
          <mxGeometry relative="1" as="geometry">
            <mxPoint x="720" y="270" as="targetPoint" />
            <Array as="points">
              <mxPoint x="730" y="300" />
              <mxPoint x="550" y="300" />
            </Array>
          </mxGeometry>
        </mxCell>
        <mxCell id="MtfLHptTJ_sEdnldehco-12" value="Effectをenqueue" style="edgeLabel;html=1;align=center;verticalAlign=middle;resizable=0;points=[];" vertex="1" connectable="0" parent="MtfLHptTJ_sEdnldehco-11">
          <mxGeometry x="-0.0489" y="-1" relative="1" as="geometry">
            <mxPoint as="offset" />
          </mxGeometry>
        </mxCell>
        <mxCell id="MtfLHptTJ_sEdnldehco-8" value="具体的なEffect" style="whiteSpace=wrap;html=1;" vertex="1" parent="1">
          <mxGeometry x="670" y="330" width="120" height="60" as="geometry" />
        </mxCell>
        <mxCell id="MtfLHptTJ_sEdnldehco-16" style="edgeStyle=orthogonalEdgeStyle;rounded=0;orthogonalLoop=1;jettySize=auto;html=1;" edge="1" parent="1" source="MtfLHptTJ_sEdnldehco-13" target="MtfLHptTJ_sEdnldehco-3">
          <mxGeometry relative="1" as="geometry" />
        </mxCell>
        <mxCell id="MtfLHptTJ_sEdnldehco-17" value="Effectをenqueue" style="edgeLabel;html=1;align=center;verticalAlign=middle;resizable=0;points=[];" vertex="1" connectable="0" parent="MtfLHptTJ_sEdnldehco-16">
          <mxGeometry x="-0.408" y="-1" relative="1" as="geometry">
            <mxPoint as="offset" />
          </mxGeometry>
        </mxCell>
        <mxCell id="MtfLHptTJ_sEdnldehco-13" value="TriggerSystem" style="whiteSpace=wrap;html=1;" vertex="1" parent="1">
          <mxGeometry x="270" y="440" width="120" height="60" as="geometry" />
        </mxCell>
        <mxCell id="MtfLHptTJ_sEdnldehco-21" style="edgeStyle=orthogonalEdgeStyle;rounded=0;orthogonalLoop=1;jettySize=auto;html=1;" edge="1" parent="1" source="MtfLHptTJ_sEdnldehco-18">
          <mxGeometry relative="1" as="geometry">
            <mxPoint x="540" y="330" as="targetPoint" />
          </mxGeometry>
        </mxCell>
        <mxCell id="MtfLHptTJ_sEdnldehco-22" value="BloodEffectをenqueue" style="edgeLabel;html=1;align=center;verticalAlign=middle;resizable=0;points=[];" vertex="1" connectable="0" parent="MtfLHptTJ_sEdnldehco-21">
          <mxGeometry x="-0.5202" y="2" relative="1" as="geometry">
            <mxPoint as="offset" />
          </mxGeometry>
        </mxCell>
        <mxCell id="MtfLHptTJ_sEdnldehco-18" value="DamageSystem" style="whiteSpace=wrap;html=1;" vertex="1" parent="1">
          <mxGeometry x="270" y="220" width="120" height="60" as="geometry" />
        </mxCell>
      </root>
    </mxGraphModel>
  </diagram>
</mxfile>
